<svg width="18" height="18" viewBox="0 0 18 18" fill="none" xmlns="http://www.w3.org/2000/svg">
<path d="M9.00028 1.6875C7.45566 1.6875 6.18778 2.95537 6.18778 4.5V5.0625H3.41016L3.37528 5.59012L2.81278 15.7151L2.77734 16.3125H15.2227L15.1878 15.7146L14.6253 5.58956L14.5898 5.0625H11.8128V4.5C11.8128 2.95537 10.5449 1.6875 9.00028 1.6875ZM9.00028 2.8125C9.44783 2.8125 9.87706 2.99029 10.1935 3.30676C10.51 3.62322 10.6878 4.05245 10.6878 4.5V5.0625H7.31278V4.5C7.31278 4.05245 7.49057 3.62322 7.80704 3.30676C8.12351 2.99029 8.55273 2.8125 9.00028 2.8125ZM4.46484 6.1875H6.18778V7.875H7.31278V6.1875H10.6878V7.875H11.8128V6.1875H13.5357L14.0279 15.1875H3.97322L4.46484 6.1875Z" fill="#0B0B0D"/>
</svg>
